<svg viewBox="0 0 24 24" fill="none" xmlns="http://www.w3.org/2000/svg">
  <defs>
    <linearGradient id="flexGradient" x1="0%" y1="0%" x2="100%" y2="100%">
      <stop offset="0%" stopColor="#4F9CF9" />
      <stop offset="50%" stopColor="#1BCAE3" />
      <stop offset="100%" stopColor="#4ADE80" />
    </linearGradient>
  </defs>
  <path d="M7 3C4.79086 3 3 4.79086 3 7V17C3 19.2091 4.79086 21 7 21H17C19.2091 21 21 19.2091 21 17V7C21 4.79086 19.2091 3 17 3H7Z" fill="url(#flexGradient)" fillOpacity="0.3"/>
  <path d="M8 7C6.89543 7 6 7.89543 6 9V15C6 16.1046 6.89543 17 8 17H16C17.1046 17 18 16.1046 18 15V9C18 7.89543 17.1046 7 16 7H8Z" fill="url(#flexGradient)"/>
  <path d="M10 11C9.44772 11 9 11.4477 9 12C9 12.5523 9.44772 13 10 13H14C14.5523 13 15 12.5523 15 12C15 11.4477 14.5523 11 14 11H10Z" fill="white"/>
</svg>